<svg width="308.7" height="54.001" viewBox="0 0 308.7 54.001" xmlns="http://www.w3.org/2000/svg"><g id="svgGroup" stroke-linecap="round" fill-rule="nonzero" font-size="9pt" stroke="#ffffff" stroke-width="0.5" fill="#ffffff" style="stroke:#ffffff;stroke-width:0.5;fill:#ffffff"><path d="M 27.825 53.25 L 17.4 53.25 L 0 0.75 L 10.125 0.75 L 25.65 48.225 L 20.625 48.225 L 36.75 0.75 L 45.75 0.75 L 61.425 48.225 L 56.55 48.225 L 72.45 0.75 L 81.75 0.75 L 64.35 53.25 L 54 53.25 L 39.675 10.425 L 42.375 10.425 L 27.825 53.25 Z M 145.05 53.25 L 135.75 53.25 L 135.75 0.75 L 143.775 0.75 L 166.725 39.075 L 162.525 39.075 L 185.1 0.75 L 193.125 0.75 L 193.2 53.25 L 183.975 53.25 L 183.9 15.225 L 185.85 15.225 L 166.65 47.25 L 162.3 47.25 L 142.8 15.225 L 145.05 15.225 L 145.05 53.25 Z M 210 53.25 L 199.95 53.25 L 223.575 0.75 L 233.175 0.75 L 256.875 53.25 L 246.675 53.25 L 226.35 5.925 L 230.25 5.925 L 210 53.25 Z M 308.7 8.775 L 302.4 14.7 A 19.599 19.599 0 0 0 297.535 10.834 A 17.68 17.68 0 0 0 296.025 10.088 A 18.85 18.85 0 0 0 288.632 8.552 A 21.989 21.989 0 0 0 288.375 8.55 A 21.503 21.503 0 0 0 283.04 9.188 A 18.259 18.259 0 0 0 280.838 9.9 Q 277.425 11.25 274.913 13.725 Q 272.4 16.2 271.013 19.575 A 18.844 18.844 0 0 0 269.659 25.751 A 22.76 22.76 0 0 0 269.625 27 A 20.152 20.152 0 0 0 270.389 32.64 A 17.561 17.561 0 0 0 271.013 34.425 Q 272.4 37.8 274.913 40.275 Q 277.425 42.75 280.838 44.1 Q 284.25 45.45 288.375 45.45 A 19.062 19.062 0 0 0 295.471 44.144 A 17.909 17.909 0 0 0 296.025 43.913 A 18.202 18.202 0 0 0 301.585 40.079 A 22.003 22.003 0 0 0 302.4 39.225 L 308.7 45.225 Q 305.025 49.5 299.7 51.75 A 28.321 28.321 0 0 1 292.194 53.734 A 34.589 34.589 0 0 1 287.85 54 A 32.131 32.131 0 0 1 280.516 53.185 A 28.519 28.519 0 0 1 276.713 52.013 Q 271.575 50.025 267.788 46.388 Q 264 42.75 261.9 37.8 A 26.678 26.678 0 0 1 259.874 29.162 A 31.265 31.265 0 0 1 259.8 27 Q 259.8 21.15 261.9 16.2 Q 264 11.25 267.825 7.613 Q 271.65 3.975 276.75 1.988 Q 281.85 0 287.925 0 A 33.135 33.135 0 0 1 294.461 0.625 A 27.976 27.976 0 0 1 299.7 2.213 Q 305.025 4.425 308.7 8.775 Z M 128.025 53.25 L 90.825 53.25 L 90.825 0.75 L 100.575 0.75 L 100.575 45 L 128.025 45 L 128.025 53.25 Z M 244.425 41.1 L 210.825 41.1 L 213.45 33.45 L 241.8 33.45 L 244.425 41.1 Z"/></g></svg>